<svg xmlns="http://www.w3.org/2000/svg" width="244" height="256" viewBox="0 0 244 256">
  <g fill="none">
    <polygon fill="#B3B3B3" points="121.519 .053 1.124 42.423 20.147 200.162 121.647 255.947 223.669 199.408 242.686 41.673"/>
    <polygon fill="#A6120D" points="230.676 50.79 121.238 13.468 121.238 242.619 212.953 191.86"/>
    <polygon fill="#DD1B16" points="14.631 51.462 30.937 192.534 121.236 242.619 121.236 13.464"/>
    <path fill="#F2F2F2" d="M151.363048,135.456508 L121.238349,149.544635 L89.4862222,149.544635 L74.5589841,186.875937 L46.7992381,187.392 L121.238349,21.7884444 L151.363048,135.456508 Z M148.449524,128.363683 L121.43746,74.8860952 L99.2792381,127.443302 L121.236317,127.443302 L148.449524,128.363683 Z"/>
    <polygon fill="#B3B3B3" points="121.236 21.788 121.435 74.886 146.578 127.484 121.291 127.484 121.236 149.51 156.201 149.545 172.54 187.396 199.103 187.888"/>
  </g>
</svg>
