<svg xmlns="http://www.w3.org/2000/svg" width="229" height="256" viewBox="0 0 229 256">
  <g fill="none">
    <path fill="#A9B9CB" d="M227.462295,75.4010929 C227.462295,71.1344262 226.553005,67.2874317 224.664481,64.0699454 C222.845902,60.852459 220.118033,58.1945355 216.480874,56.0961749 C186.264481,38.6797814 156.048087,21.263388 125.831694,3.84699454 C117.718033,-0.839344262 109.814208,-0.699453552 101.700546,4.0568306 C89.6699454,11.1213115 29.4469945,45.6743169 11.5409836,56.0961749 C4.12677596,60.3628415 0.559562842,66.9377049 0.559562842,75.4710383 C0.559562842,110.513661 0.559562842,145.62623 0.559562842,180.668852 C0.559562842,184.865574 1.46885246,188.572678 3.21748634,191.790164 C5.03606557,195.077596 7.83387978,197.87541 11.5409836,200.043716 C29.5169399,210.465574 89.6699454,244.948634 101.700546,252.08306 C109.814208,256.839344 117.648087,257.04918 125.831694,252.292896 C156.048087,234.806557 186.264481,217.460109 216.480874,200.043716 C220.257923,197.87541 222.985792,195.147541 224.804372,191.790164 C226.553005,188.572678 227.462295,184.865574 227.462295,180.668852 C227.462295,180.598907 227.462295,110.443716 227.462295,75.4010929"/>
    <path fill="#7F8B99" d="M125.621858,3.98688525 C117.508197,-0.699453552 109.604372,-0.559562842 101.560656,4.19672131 C89.5300546,11.2612022 29.4469945,45.7442623 11.5409836,56.0961749 C4.19672131,60.3628415 0.559562842,66.8677596 0.559562842,75.4010929 C0.559562842,110.37377 0.559562842,145.346448 0.559562842,180.319126 C0.559562842,184.515847 1.46885246,188.222951 3.21748634,191.440437 C5.03606557,194.727869 7.83387978,197.455738 11.5409836,199.624044 C15.6677596,202.002186 21.9628415,205.639344 29.3770492,209.906011 L195.217486,44.0655738 C171.995628,30.7759563 148.843716,17.4163934 125.621858,3.98688525"/>
    <path fill="#FFF" d="M137.442623,111.982514 L172.765027,112.262295 C172.765027,97.5737705 157.866667,61.4819672 115.2,61.4819672 C87.9912568,61.4819672 51.4098361,78.7584699 51.4098361,128.489617 C51.4098361,178.220765 87.2918033,194.448087 115.2,194.448087 C160.454645,194.448087 171.22623,163.182514 171.22623,145.486339 L137.512568,143.527869 C137.512568,143.527869 138.421858,163.951913 114.990164,163.951913 C93.3770492,163.951913 89.7398907,137.442623 89.7398907,128.489617 C89.7398907,114.780328 94.6360656,92.8174863 114.990164,92.8174863 C135.344262,92.8874317 137.442623,111.982514 137.442623,111.982514"/>
  </g>
</svg>
