<svg xmlns="http://www.w3.org/2000/svg" width="229" height="256" viewBox="0 0 229 256">
  <g fill="none">
    <path fill="#9A4993" d="M227.602186,75.4010929 C227.602186,71.1344262 226.692896,67.2874317 224.804372,64.0699454 C222.985792,60.852459 220.257923,58.1945355 216.620765,56.0961749 C186.404372,38.6797814 156.118033,21.263388 125.901639,3.84699454 C117.718033,-0.839344262 109.884153,-0.699453552 101.770492,4.0568306 C89.7398907,11.1213115 29.4469945,45.6743169 11.5409836,56.0961749 C4.12677596,60.3628415 0.559562842,66.9377049 0.559562842,75.4710383 C0.559562842,110.513661 0.559562842,145.62623 0.559562842,180.668852 C0.559562842,184.865574 1.46885246,188.572678 3.21748634,191.790164 C5.03606557,195.077596 7.83387978,197.87541 11.5409836,200.043716 C29.5169399,210.465574 89.7398907,244.948634 101.770492,252.08306 C109.884153,256.839344 117.787978,257.04918 125.901639,252.292896 C156.118033,234.806557 186.404372,217.460109 216.620765,200.043716 C220.397814,197.87541 223.125683,195.147541 224.944262,191.790164 C226.692896,188.572678 227.602186,184.865574 227.602186,180.668852 C227.602186,180.598907 227.602186,110.443716 227.602186,75.4010929"/>
    <path fill="#6A1577" d="M114.360656,127.650273 L3.07759563,191.720219 C4.89617486,195.00765 7.69398907,197.805464 11.4010929,199.97377 C29.3770492,210.395628 89.6,244.878689 101.630601,252.013115 C109.744262,256.769399 117.648087,256.979235 125.761749,252.222951 C155.978142,234.736612 186.264481,217.390164 216.480874,199.97377 C220.257923,197.805464 222.985792,195.077596 224.804372,191.720219 L114.360656,127.650273"/>
    <path fill="#6A1577" d="M81.4163934,146.605464 C87.9213115,157.936612 100.091803,165.560656 114.010929,165.560656 C128.069945,165.560656 140.310383,157.866667 146.745355,146.395628 L114.360656,127.650273 L81.4163934,146.605464"/>
    <path fill="#813084" d="M227.602186,75.4010929 C227.602186,71.1344262 226.692896,67.2874317 224.804372,64.0699454 L114.360656,127.650273 L224.944262,191.720219 C226.692896,188.502732 227.602186,184.795628 227.602186,180.598907 C227.602186,180.598907 227.602186,110.443716 227.602186,75.4010929"/>
    <path fill="#FFF" d="M146.745355,146.395628 C140.310383,157.796721 128.069945,165.560656 114.010929,165.560656 C100.021858,165.560656 87.8513661,157.936612 81.4163934,146.605464 C78.2688525,141.079781 76.4502732,134.784699 76.4502732,128 C76.4502732,107.22623 93.2371585,90.4393443 114.010929,90.4393443 C127.860109,90.4393443 139.960656,97.9934426 146.465574,109.184699 L179.269945,90.2994536 C166.190164,67.7770492 141.84918,52.5989071 113.940984,52.5989071 C72.2535519,52.5989071 38.5398907,86.3825137 38.5398907,128 C38.5398907,141.639344 42.1770492,154.50929 48.5420765,165.560656 C61.5519126,188.153005 86.0327869,203.401093 114.010929,203.401093 C142.059016,203.401093 166.539891,188.08306 179.549727,165.35082 L146.745355,146.395628"/>
    <g fill="#FFF" transform="translate(174.164 109.814)">
      <rect width="7.484" height="36.162" x="6.575" y=".35"/>
      <rect width="7.484" height="36.162" x="23.152" y=".35"/>
      <rect width="36.162" height="7.484" x=".56" y="6.435"/>
      <rect width="36.162" height="7.484" x=".56" y="22.942"/>
    </g>
  </g>
</svg>
