<svg xmlns="http://www.w3.org/2000/svg" width="236" height="256" viewBox="0 0 236 256">
  <path fill="#47848F" d="M83.1697181,54.9251201 C49.775556,48.8429281 23.3721149,55.2087604 12.8489566,73.4354053 C4.99634019,87.0365359 7.24094688,105.069369 18.292576,124.34536 C19.2332329,125.986031 21.3258128,126.553505 22.9664841,125.612849 C24.6071554,124.672192 25.1746293,122.579612 24.2339726,120.93894 C14.2785386,103.574907 12.3413565,88.011877 18.7800539,76.8597257 C27.5216865,61.7187741 51.0730984,56.040562 81.9425401,61.6629182 C83.8031315,62.0017942 85.5861524,60.7681997 85.9250281,58.9076082 C86.2639039,57.0470167 85.0303097,55.263996 83.1697181,54.9251201 L83.1697181,54.9251201 L83.1697181,54.9251201 Z M132.556003,23.9065699 C129.831064,29.1765732 124.330385,32.7787757 117.988366,32.7787757 C108.936756,32.7787757 101.598978,25.4409968 101.598978,16.389388 C101.598978,7.33777891 108.936756,0 117.988366,0 C127.039974,0 134.377754,7.33777891 134.377754,16.389388 C134.377754,16.6261693 134.372732,16.8617778 134.362791,17.0961129 C161.492788,31.1274803 180.34481,78.9749797 180.34481,134.253635 C180.34481,156.988855 177.166191,178.806464 171.247855,197.719225 C170.683054,199.524118 168.762037,200.52941 166.957144,199.964608 C165.152252,199.399807 164.14696,197.47879 164.711762,195.673897 C170.417921,177.439169 173.496168,156.3105 173.496168,134.253635 C173.496168,82.2028925 156.194031,37.4128044 132.556003,23.9065699 Z M15.1652238,178.020042 C15.5693787,177.990199 15.9776099,177.975013 16.389388,177.975013 C25.4409969,177.975013 32.7787759,185.312794 32.7787759,194.364401 C32.7787759,203.416011 25.4409969,210.753789 16.389388,210.753789 C7.33777889,210.753789 0,203.416011 0,194.364401 C0,188.202499 3.40050011,182.834825 8.42727569,180.035605 C5.95859116,149.403935 38.1547116,108.342597 86.8101435,80.2513705 C107.02007,68.5831642 128.063651,60.3012258 147.833839,56.0653769 C149.68307,55.6691708 151.503357,56.8470811 151.899563,58.6963129 C152.295769,60.5455447 151.117859,62.3658317 149.268627,62.7620378 C130.215504,66.8442525 109.839698,74.8633806 90.2344643,86.182468 C44.4134757,112.637228 14.1152889,150.766779 15.1652238,178.020042 Z M205.101371,202.465962 C203.739965,200.076467 202.96223,197.311259 202.96223,194.364401 C202.96223,185.312794 210.30001,177.975013 219.351619,177.975013 C228.403228,177.975013 235.741007,185.312794 235.741007,194.364401 C235.741007,203.416011 228.403228,210.753789 219.351619,210.753789 C215.784669,210.753789 212.483858,209.614307 209.793344,207.679501 C183.647732,223.060993 133.706657,215.215651 86.7097156,188.081954 C66.703698,176.531474 49.1613881,162.613701 35.6586515,147.775194 C34.3858124,146.376438 34.4878882,144.210682 35.8866441,142.937843 C37.2853998,141.665004 39.4511555,141.76708 40.723995,143.165835 C53.7392317,157.468617 70.7259502,170.945594 90.1340364,182.150856 C134.487245,207.758195 181.194225,215.37869 205.101373,202.465961 L205.101371,202.465962 Z M204.028404,143.609436 C202.806512,145.052911 200.645805,145.232539 199.202331,144.010647 C197.758856,142.788755 197.579229,140.628049 198.801121,139.184575 C219.0105,115.310349 225.818991,92.1419041 217.096249,77.033672 C210.764406,66.0665963 196.69103,59.9789766 177.165955,59.725051 C175.274915,59.7004581 173.761859,58.1475304 173.786157,56.25649 C173.811046,54.3654499 175.363974,52.8523956 177.255014,52.8766933 C198.964646,53.1593246 215.300153,60.2254584 223.027347,73.6093512 C233.528836,91.7984647 225.894094,117.778538 204.028404,143.609436 Z M66.8212322,203.963794 C66.1836099,202.183324 67.1100715,200.223072 68.8905421,199.585449 C70.6710127,198.947827 72.6312644,199.874289 73.2688863,201.65476 C83.8363828,231.163011 100.518167,248.693562 117.988366,248.693562 C130.553442,248.693562 142.769417,239.693031 152.714579,223.149578 C153.688968,221.528714 155.792837,221.004642 157.413702,221.979031 C159.034567,222.95342 159.558639,225.057289 158.58425,226.678154 C147.518067,245.086389 133.326908,255.542203 117.988366,255.542203 C96.9570357,255.542203 78.2536347,235.887175 66.8212322,203.963794 Z M228.892365,194.364401 C228.892365,189.095194 224.620827,184.823655 219.351619,184.823655 C214.08241,184.823655 209.810871,189.095194 209.810871,194.364401 C209.810871,199.633611 214.08241,203.905147 219.351619,203.905147 C224.620827,203.905147 228.892365,199.633611 228.892365,194.364401 Z M16.389388,203.905147 C21.6585967,203.905147 25.9301345,199.633611 25.9301345,194.364401 C25.9301345,189.095194 21.6585967,184.823655 16.389388,184.823655 C11.120179,184.823655 6.84864134,189.095194 6.84864134,194.364401 C6.84864134,199.633611 11.120179,203.905147 16.389388,203.905147 Z M117.988366,25.9301345 C123.257574,25.9301345 127.529112,21.6585967 127.529112,16.389388 C127.529112,11.120179 123.257574,6.84864132 117.988366,6.84864132 C112.719156,6.84864132 108.44762,11.120179 108.44762,16.389388 C108.44762,21.6585967 112.719156,25.9301345 117.988366,25.9301345 Z M120.491723,145.844014 C114.090217,147.227172 107.783449,143.158901 106.397584,136.757395 C105.017132,130.355891 109.082698,124.049123 115.484202,122.663257 C121.885707,121.280099 128.192476,125.34837 129.578341,131.749876 C130.961499,138.151381 126.893227,144.458149 120.491723,145.844014 Z"/>
</svg>
