<svg xmlns="http://www.w3.org/2000/svg" width="256" height="151" viewBox="0 0 256 151">
  <path d="M255.329524 145.147937C246.064762 147.504762 240.335238 145.249524 235.194921 137.528889 223.654603 120.23873 210.915556 103.740952 198.623492 86.9384127 197.03873 84.7644444 195.393016 82.6311111 193.340952 79.9288889 178.793651 99.5555556 164.266667 118.247619 150.633651 137.691429 145.75746 144.64 140.63746 147.667302 131.535238 145.208889L186.229841 71.8019048 135.314286 5.50603175C144.071111 3.79936508 150.125714 4.67301587 155.489524 12.5155556 167.334603 29.8260317 180.39873 46.3034921 193.422222 63.735873 206.526984 46.3644444 219.428571 29.8666667 231.619048 12.7187302 236.515556 5.77015873 241.777778 3.12888889 250.575238 5.68888889 243.911111 14.5269841 237.389206 23.2228571 230.826667 31.8577778 221.968254 43.4996825 213.272381 55.2838095 204.088889 66.6819048 200.817778 70.7453968 201.346032 73.3866667 204.271746 77.2266667 221.257143 99.5555556 238.039365 122.107937 255.329524 145.147937zM.67047619 70.5828571C2.13333333 63.248254 3.10857143 55.7714286 5.14031746 48.5790476 17.3307937 5.03873016 67.311746-13.064127 101.648254 13.9174603 121.76254 29.7447619 126.760635 52.0533333 125.765079 77.2063492L12.3936508 77.2063492C10.6869841 122.331429 43.1746032 149.577143 84.5815873 135.68 99.1085714 130.80381 107.662222 119.426032 111.949206 105.20381 114.123175 98.072381 117.719365 96.9549206 124.424127 98.9866667 120.990476 116.784762 113.208889 131.657143 96.9549206 140.96254 72.5739683 154.900317 37.7701587 150.389841 19.464127 131.027302 8.6552381 119.649524 4.06349206 105.488254 2.03174603 90.1892063 1.72698413 87.7511111 1.09714286 85.3536508.60952381 82.935873.65015873 78.8182011.67047619 74.7005291.67047619 70.5828571zM12.5968254 67.5555556L115.057778 67.5555556C114.387302 34.9257143 94.0698413 11.7434921 66.295873 11.5403175 35.8196825 11.2965079 13.9174603 33.9301587 12.5968254 67.5555556z"/>
</svg>
