<svg xmlns="http://www.w3.org/2000/svg" width="158" height="256" viewBox="0 0 158 256">
  <defs>
    <linearGradient id="scala-a" x1="0%" x2="100%" y1="50%" y2="50%">
      <stop offset="0%" stop-color="#4F4F4F"/>
      <stop offset="100%"/>
    </linearGradient>
    <linearGradient id="scala-b" x1="0%" x2="100%" y1="50%" y2="50%">
      <stop offset="0%" stop-color="#C40000"/>
      <stop offset="100%" stop-color="red"/>
    </linearGradient>
  </defs>
  <g fill="none">
    <path fill="url(#scala-a)" d="M0,177.230769 L0,157.538462 C0,154.219214 71.6165471,148.659419 118.276376,137.846154 L118.276376,137.846154 C140.817504,143.07118 157.538462,149.519316 157.538462,157.538462 L157.538462,157.538462 L157.538462,177.230769 C157.538462,185.245538 140.817504,191.698051 118.276376,196.923077 L118.276376,196.923077 C71.6165471,186.107624 0,180.547829 0,177.230769" transform="matrix(1 0 0 -1 0 334.77)"/>
    <path fill="url(#scala-a)" d="M0,98.4615385 L0,78.7692308 C0,75.4499828 71.6165471,69.8901883 118.276376,59.0769231 L118.276376,59.0769231 C140.817504,64.3019489 157.538462,70.7500855 157.538462,78.7692308 L157.538462,78.7692308 L157.538462,98.4615385 C157.538462,106.476308 140.817504,112.92882 118.276376,118.153846 L118.276376,118.153846 C71.6165471,107.338393 0,101.778598 0,98.4615385" transform="matrix(1 0 0 -1 0 177.23)"/>
    <path fill="url(#scala-b)" d="M0,137.846154 L0,78.7692308 C0,83.6923077 157.538462,93.5384615 157.538462,118.153846 L157.538462,118.153846 L157.538462,177.230769 C157.538462,152.615385 0,142.769231 0,137.846154" transform="matrix(1 0 0 -1 0 256)"/>
    <path fill="url(#scala-b)" d="M0,59.0769231 L0,0 C0,4.92307692 157.538462,14.7692308 157.538462,39.3846154 L157.538462,39.3846154 L157.538462,98.4615385 C157.538462,73.8461538 0,64 0,59.0769231" transform="matrix(1 0 0 -1 0 98.462)"/>
    <path fill="url(#scala-b)" d="M0,216.615385 L0,157.538462 C0,162.461538 157.538462,172.307692 157.538462,196.923077 L157.538462,196.923077 L157.538462,256 C157.538462,231.384615 0,221.538462 0,216.615385" transform="matrix(1 0 0 -1 0 413.538)"/>
  </g>
</svg>
