<svg xmlns="http://www.w3.org/2000/svg" width="256" height="256" viewBox="0 0 256 256">
  <path d="M194.389492,18.9359032 C231.089652,40.8828428 255.048395,82.3991368 255.658032,125.134705 C256.999234,168.297019 234.503621,211.093552 198.352134,234.564584 C158.116079,261.632476 102.456201,262.668859 61.366653,236.942169 C19.4845768,211.947044 -4.96187535,161.530046 1.31738791,113.124852 C6.37737675,61.9762902 45.8818679,16.8631368 95.6892279,4.48750139 C128.731565,-3.98645582 165.248834,0.951605586 194.389492,18.9359032 Z M236.088677,113.490635 C229.626523,46.5524688 153.056089,0.402932091 90.6292391,25.3980577 C46.1257228,41.0047702 15.0342252,87.8249079 19.3626493,135.010828 C21.0086698,193.292145 77.095293,242.489868 135.132755,236.698315 C196.15744,234.930366 246.147692,173.722791 236.088677,113.490635 Z"/>
  <path d="M96.9085023,121.537845 C124.89085,98.6764502 152.263561,75.0225265 180.855546,52.8317321 C165.858471,75.8760186 150.434649,98.6154865 135.437574,121.659773 C122.574228,121.720737 109.710884,121.720737 96.9085023,121.537845 L96.9085023,121.537845 L96.9085023,121.537845 Z M120.562426,134.279263 C133.486735,134.279263 146.35008,134.279263 159.213425,134.462155 C131.048186,157.201622 103.797403,181.038437 75.1444539,203.168268 C90.1415293,180.123982 105.565351,157.32355 120.562426,134.279263 L120.562426,134.279263 L120.562426,134.279263 Z"/>
</svg>
